<svg id="Capa_1" enable-background="new 0 0 512 512" height="512" viewBox="0 0 512 512" width="512" xmlns="http://www.w3.org/2000/svg" xmlns:xlink="http://www.w3.org/1999/xlink"><linearGradient id="SVGID_1_" gradientUnits="userSpaceOnUse" x1="256" x2="256" y1="512" y2="0"><stop offset="0" stop-color="#5558ff"/><stop offset="1" stop-color="#00c0ff"/></linearGradient><linearGradient id="lg1"><stop offset="0" stop-color="#addcff"/><stop offset=".5028" stop-color="#eaf6ff"/><stop offset="1" stop-color="#eaf6ff"/></linearGradient><linearGradient id="SVGID_2_" gradientUnits="userSpaceOnUse" x1="256" x2="256" xlink:href="#lg1" y1="211" y2="181"/><linearGradient id="SVGID_3_" gradientUnits="userSpaceOnUse" x1="286" x2="286" xlink:href="#lg1" y1="452" y2="392"/><linearGradient id="SVGID_4_" gradientUnits="userSpaceOnUse" x1="346" x2="346" xlink:href="#lg1" y1="452" y2="392"/><linearGradient id="SVGID_5_" gradientUnits="userSpaceOnUse" x1="226" x2="226" xlink:href="#lg1" y1="512" y2="60"/><g><g><g><path d="m446.606 64.394-60-60c-2.812-2.813-6.627-4.394-10.606-4.394h-240c-3.979 0-7.794 1.581-10.606 4.394l-60 60c-2.814 2.813-4.394 6.628-4.394 10.606v257.54l15 15.46-15 14.662v74.338c0 3.978 1.58 7.793 4.394 10.606l60 60c2.812 2.813 6.627 4.394 10.606 4.394h74.378l15.122-11 14.931 11h135.569c3.979 0 7.794-1.581 10.606-4.394l60-60c2.814-2.813 4.394-6.628 4.394-10.606v-362c0-3.978-1.58-7.793-4.394-10.606z" fill="url(#SVGID_1_)"/></g></g><g><circle cx="256" cy="196" fill="url(#SVGID_2_)" r="15"/><path d="m286 392c-8.284 0-15 6.716-15 15v30c0 8.284 6.716 15 15 15s15-6.716 15-15v-30c0-8.284-6.716-15-15-15z" fill="url(#SVGID_3_)"/><path d="m346 392c-8.284 0-15 6.716-15 15v30c0 8.284 6.716 15 15 15s15-6.716 15-15v-30c0-8.284-6.716-15-15-15z" fill="url(#SVGID_4_)"/><path d="m211 324.369c13.966 4.927 29.081 7.631 45 7.631 74.439 0 135-61.009 135-136s-60.561-136-135-136-135 61.009-135 136c0 42.027 19.185 80.624 50.063 105.878l-29.425 55.165c-24.965-14.115-52.316-22.376-80.638-24.503v30.122c23.393 2.087 45.934 9.116 66.514 20.859l-1.239 2.323c-3.451 6.473-5.275 13.789-5.275 21.156 0 24.813 20.187 45 45 45 8.587 0 16.617-2.42 23.451-6.61 11.811 20.62 18.853 43.171 20.927 66.61h30.052c-.59-7.681-1.621-15.324-3.117-22.915-4.889-24.801-14.391-47.98-28.25-69.036 1.255-4.133 1.936-8.513 1.936-13.05v-82.63zm45-173.369c24.813 0 45 20.187 45 45s-20.187 45-45 45-45-20.187-45-45 20.187-45 45-45z" fill="url(#SVGID_5_)"/></g></g></svg>