<svg id="Capa_1" enable-background="new 0 0 512 512" height="512" viewBox="0 0 512 512" width="512" xmlns="http://www.w3.org/2000/svg"><g><g><path d="m176.331 364.193c-2.929 2.93-2.929 7.678 0 10.607 1.464 1.465 3.384 2.197 5.303 2.197 1.92 0 3.839-.732 5.303-2.196l8.189-8.189c2.118 5.425 5.285 10.527 9.496 15.002l-5.436 5.436c-2.929 2.929-2.929 7.678 0 10.607 1.464 1.465 3.384 2.197 5.303 2.197 1.92 0 3.839-.732 5.303-2.196l5.436-5.436c4.475 4.211 9.577 7.378 15.002 9.496l-8.189 8.188c-2.929 2.93-2.929 7.678 0 10.607 1.464 1.465 3.384 2.197 5.303 2.197s3.839-.732 5.303-2.196l15.594-15.593c11.708-.222 23.348-4.777 32.262-13.691 8.915-8.915 13.47-20.555 13.692-32.263l15.592-15.592c2.929-2.93 2.929-7.678 0-10.608-2.929-2.928-7.678-2.928-10.607 0l-8.189 8.189c-2.118-5.424-5.285-10.527-9.496-15.002l5.436-5.436c2.929-2.93 2.929-7.678 0-10.608-2.929-2.928-7.678-2.928-10.607 0l-5.436 5.436c-4.41-4.153-9.485-7.358-14.985-9.514l8.171-8.171c2.929-2.93 2.929-7.678 0-10.607-2.928-2.929-7.678-2.93-10.607-.001l-15.567 15.572c-3.367.061-6.674.474-9.881 1.224l-10.366-10.365c-4.66-4.66-10.856-7.227-17.447-7.227-6.59 0-12.786 2.566-17.445 7.226-4.66 4.659-7.227 10.856-7.227 17.446s2.567 12.787 7.226 17.445l10.388 10.388c-.756 3.235-1.16 6.533-1.223 9.839zm93.569-28.676c12.436 12.435 12.436 32.669 0 45.104-12.436 12.436-32.669 12.436-45.105 0l-8.571-8.57c-12.436-12.436-12.436-32.67 0-45.106 6.024-6.024 14.033-9.341 22.552-9.341s16.529 3.318 22.553 9.342zm-76.534-17.751c-1.826-1.826-2.832-4.255-2.832-6.838s1.006-5.012 2.833-6.839c1.826-1.826 4.255-2.832 6.838-2.832 2.584 0 5.012 1.006 6.839 2.833l6.119 6.118c-2.689 1.761-5.221 3.804-7.547 6.13-2.344 2.344-4.383 4.879-6.126 7.552z"/><path d="m468.38 118.734-15.593-15.593c-.063-3.305-.467-6.604-1.223-9.838l10.388-10.387c4.66-4.66 7.226-10.856 7.226-17.446 0-6.591-2.566-12.787-7.226-17.445-4.66-4.66-10.856-7.227-17.446-7.227-6.591 0-12.786 2.567-17.446 7.226l-10.388 10.386c-3.236-.756-6.535-1.161-9.842-1.223l-15.59-15.592c-2.928-2.929-7.678-2.93-10.607-.001-2.929 2.93-2.929 7.678 0 10.607l8.189 8.189c-3.366 1.314-6.607 3.035-9.653 5.155-62.916-11.914-98.636-40.802-114.435-57.147-5.237-5.414-12.286-8.398-19.847-8.398-7.562 0-14.61 2.984-19.85 8.402-8.014 8.296-21.838 20.552-42.191 31.821-1.897 1.051-3.247 2.871-3.701 4.991s.032 4.333 1.333 6.069l54.511 72.693-34.791 34.791c-2.169 2.169-2.798 5.44-1.59 8.258l26.52 61.887-91.464-79.371 20.569-20.569c2.776-2.776 2.942-7.224.38-10.199l-42.836-49.686c-1.714-1.987-4.341-2.934-6.93-2.497-11.885 2.01-24.377 3.358-37.127 4.005-14.745.739-26.295 12.93-26.295 27.752v209.099c0 60.229 32.403 116.354 84.564 146.471l84.85 48.981c10.501 6.07 22.274 9.103 34.051 9.103 11.774 0 23.551-3.034 34.054-9.101l84.854-48.983c52.155-30.115 84.553-86.238 84.553-146.471v-61.543c0-4.143-3.358-7.5-7.5-7.5s-7.5 3.358-7.5 7.5v61.543c0 54.891-29.525 106.038-77.053 133.48l-84.856 48.984c-16.381 9.461-36.727 9.462-53.101-.001l-84.852-48.983c-47.535-27.446-77.064-78.593-77.064-133.48v-209.099c0-6.823 5.291-12.432 12.051-12.771 11.848-.602 23.492-1.782 34.681-3.516l19.265 22.336c-8.238 1.681-16.672 3.072-25.205 4.139-8.768 1.096-15.381 8.599-15.381 17.453v106.774c0 4.143 3.358 7.5 7.5 7.5s7.5-3.358 7.5-7.5v-106.774c0-1.304.963-2.408 2.241-2.567 11.746-1.47 23.329-3.515 34.496-6.089l5.129 5.955-21.339 21.339c-1.472 1.472-2.266 3.489-2.192 5.569.073 2.08 1.008 4.036 2.58 5.4l122.225 106.065c1.404 1.219 3.158 1.835 4.917 1.835 1.547 0 3.099-.478 4.421-1.441 2.824-2.062 3.849-5.8 2.472-9.013l-37.392-87.257 35.801-35.8c2.64-2.64 2.936-6.819.696-9.805l-29.049-38.723c7.535-4.727 14.729-9.791 21.464-15.111.932-.735 2.239-.731 3.169 0 29.203 23.04 64.224 39.71 104.148 49.632.775 10.864 5.292 21.508 13.58 29.797 8.02 8.02 18.246 12.52 28.743 13.504v148.171c0 40.496-21.785 78.235-56.852 98.488l-84.849 48.98c-3.877 2.235-8.838 2.231-12.706.003l-84.854-48.992c-35.068-20.245-56.852-57.98-56.852-98.479v-39.682c0-4.143-3.358-7.5-7.5-7.5s-7.5 3.358-7.5 7.5v39.682c0 45.841 24.659 88.553 64.353 111.47l84.858 48.995c4.214 2.429 9.001 3.712 13.846 3.712 4.844 0 9.632-1.283 13.85-3.715l84.855-48.983c39.694-22.926 64.352-65.641 64.352-111.478v-136.506l4.112 4.111c1.464 1.464 3.384 2.196 5.303 2.196s3.839-.732 5.303-2.196c2.929-2.93 2.929-7.678 0-10.608l-8.188-8.188c5.425-2.118 10.527-5.285 15.002-9.496l3.869 3.869v60.27c0 4.143 3.358 7.5 7.5 7.5s7.5-3.358 7.5-7.5v-86.867c.446-.949.854-1.911 1.233-2.882l8.189 8.189c1.464 1.464 3.384 2.196 5.303 2.196s3.839-.732 5.303-2.196c2.933-2.929 2.933-7.678.004-10.608zm-30.713-60.104c1.826-1.826 4.255-2.832 6.839-2.832 2.583 0 5.012 1.006 6.839 2.833 1.826 1.826 2.832 4.255 2.832 6.838s-1.006 5.012-2.833 6.839l-6.123 6.123c-1.743-2.673-3.782-5.209-6.126-7.553s-4.879-4.382-7.551-6.125zm-203.654-4.061c-6.629 5.236-13.745 10.205-21.208 14.833l-15.261-20.361c14.556-8.819 27.406-18.958 38.279-30.214 2.385-2.468 5.604-3.826 9.064-3.826 3.459 0 6.678 1.358 9.062 3.825 18.858 19.51 51.901 44.292 105.299 57.704l3.964 3.964c-4.211 4.475-7.379 9.578-9.497 15.003l-8.189-8.189c-2.928-2.929-7.678-2.93-10.607-.001-2.185 2.186-2.738 5.383-1.663 8.083-29.195-9.562-55.186-23.227-77.497-40.83-6.407-5.041-15.348-5.039-21.746.009zm140.798 80.594c-12.436-12.435-12.436-32.669 0-45.104l8.571-8.572c6.219-6.219 14.384-9.327 22.553-9.327 8.167 0 16.336 3.11 22.553 9.326 12.435 12.436 12.435 32.671 0 45.106l-8.571 8.571c-12.435 12.436-32.67 12.436-45.106 0z"/></g></g></svg>