<svg id="Layer_5" enable-background="new 0 0 64 64" height="512" viewBox="0 0 64 64" width="512" xmlns="http://www.w3.org/2000/svg" xmlns:xlink="http://www.w3.org/1999/xlink"><linearGradient id="SVGID_1_" gradientUnits="userSpaceOnUse" x1="31.997" x2="31.997" y1="63" y2="1"><stop offset="0" stop-color="#9f2fff"/><stop offset="1" stop-color="#0bb1d3"/></linearGradient><path d="m53.993 1c-2.241 0-4.288.828-5.865 2.188-.916-1.335-2.453-2.188-4.128-2.188h-38c-2.757 0-5 2.243-5 5v16c0 2.757 2.243 5 5 5h1v1.764l2.625.718c.086.229.182.458.286.685l-1.351 2.365 3.908 3.908 2.365-1.351c.227.104.455.2.685.286l.718 2.625h1.764v9h2v-9h1.764l.718-2.625c.23-.086.459-.182.685-.285l2.365 1.35 3.908-3.908-1.351-2.365c.104-.227.2-.455.286-.685l2.625-.718v-1.764h2.5l5.3 7.066c.438.585 1.136.934 1.867.934 1.286 0 2.333-1.047 2.333-2.333v-5.667h1.993v21.236l6.658 13.317c.448.892 1.345 1.447 2.342 1.447s1.895-.555 2.342-1.447l6.658-13.316v-38.237c0-4.963-4.037-9-9-9zm4.004 43.882-3.997 2-4.004-2-3.003 1.5v-27.382h14v27.381zm2.996-27.882h-14v-2h14zm-31.993 10.236-2.193.601-.161.524c-.143.462-.335.923-.572 1.37l-.258.485 1.13 1.98-1.748 1.748-1.98-1.13-.486.259c-.444.235-.905.428-1.369.571l-.524.161-.603 2.195h-2.473l-.601-2.193-.524-.161c-.462-.143-.923-.335-1.37-.572l-.485-.258-1.98 1.13-1.748-1.748 1.13-1.98-.258-.485c-.237-.447-.43-.908-.572-1.37l-.161-.524-2.194-.603v-2.473l2.193-.601.161-.524c.143-.462.335-.923.572-1.37l.258-.485-1.13-1.98 1.748-1.748 1.98 1.13.485-.258c.447-.237.908-.43 1.37-.572l.524-.161.603-2.194h2.473l.601 2.193.524.161c.464.144.925.336 1.369.571l.486.259 1.98-1.13 1.748 1.748-1.13 1.98.258.485c.237.447.43.908.572 1.37l.161.524 2.194.603zm12-2.236v7.667c0 .288-.428.429-.601.2l-5.899-7.867h-3.5v-1.764l-2.625-.718c-.086-.229-.182-.458-.286-.685l1.351-2.365-3.908-3.908-2.365 1.35c-.226-.104-.454-.199-.685-.285l-.718-2.625h-5.527l-.718 2.625c-.229.086-.458.182-.685.286l-2.365-1.351-3.908 3.908 1.351 2.365c-.104.227-.2.455-.286.685l-2.626.718v1.764h-1c-1.654 0-3-1.346-3-3v-16c0-1.654 1.346-3 3-3h38c1.17 0 2.227.691 2.716 1.726-1.079 1.484-1.723 3.303-1.723 5.274v15zm13.546 35.657c-.209.42-.896.419-1.105.001l-6.105-12.211 2.661-1.329 4.004 2 3.997-2 2.654 1.329zm6.447-47.657h-14v-3c0-3.859 3.141-7 7-7s7 3.141 7 7zm-41.993 7c-3.309 0-6 2.691-6 6s2.691 6 6 6 6-2.691 6-6-2.691-6-6-6zm0 10c-2.206 0-4-1.794-4-4s1.794-4 4-4 4 1.794 4 4-1.794 4-4 4zm14 23.101v-2.101h-2v2.101c-2.279.465-4 2.484-4 4.899 0 2.757 2.243 5 5 5s5-2.243 5-5c0-2.414-1.721-4.434-4-4.899zm-1 7.899c-1.654 0-3-1.346-3-3s1.346-3 3-3 3 1.346 3 3-1.346 3-3 3zm-12-7.899v-4.101h-2v4.101c-2.279.465-4 2.484-4 4.899 0 2.757 2.243 5 5 5s5-2.243 5-5c0-2.414-1.721-4.434-4-4.899zm-1 7.899c-1.654 0-3-1.346-3-3s1.346-3 3-3 3 1.346 3 3-1.346 3-3 3zm-12-7.899v-2.101h-2v2.101c-2.279.465-4 2.485-4 4.899 0 2.757 2.243 5 5 5s5-2.243 5-5c0-2.414-1.721-4.434-4-4.899zm-1 7.899c-1.654 0-3-1.346-3-3s1.346-3 3-3 3 1.346 3 3-1.346 3-3 3zm20-23v7h7v4h-2v-2h-7v-9zm-19 11h-2v-4h7v-7h2v9h-7zm47-12c-1.654 0-3 1.346-3 3s1.346 3 3 3 3-1.346 3-3-1.346-3-3-3zm0 4c-.552 0-1-.448-1-1s.448-1 1-1 1 .448 1 1-.448 1-1 1zm0-12c-1.654 0-3 1.346-3 3s1.346 3 3 3 3-1.346 3-3-1.346-3-3-3zm0 4c-.552 0-1-.448-1-1s.448-1 1-1 1 .448 1 1-.448 1-1 1zm0-12c-1.654 0-3 1.346-3 3s1.346 3 3 3 3-1.346 3-3-1.346-3-3-3zm0 4c-.552 0-1-.448-1-1s.448-1 1-1 1 .448 1 1-.448 1-1 1zm-47-18h-2v-2h2zm2-2h18v2h-18zm20 10h14v-10h-14zm2-8h10v6h-10zm2 10h10v2h-10zm0 4h10v2h-10zm-28-12h22v2h-22z" fill="url(#SVGID_1_)"/></svg>