<svg id="Layer_2" height="512" viewBox="0 0 128 128" width="512" xmlns="http://www.w3.org/2000/svg" data-name="Layer 2"><path d="m1.75 31.372h124.5a0 0 0 0 1 0 0v77.006a3 3 0 0 1 -3 3h-118.5a3 3 0 0 1 -3-3v-77.006a0 0 0 0 1 0 0z" fill="#ededed"/><path d="m126.25 31.372h-124.5v-11.75a3 3 0 0 1 3-3h118.5a3 3 0 0 1 3 3z" fill="#583377"/><path d="m11.75 41.372h104.5v15.35h-104.5z" fill="#ff4f9b"/><path d="m48.312 63.7h67.938v15.35h-67.938z" fill="#5a9ed1"/><path d="m48.312 86.029h67.938v15.35h-67.938z" fill="#5a9ed1"/><g fill="#fcda42"><path d="m11.75 63.7h29.583v37.678h-29.583z"/><path d="m116.25 25.747h-4.375a1.75 1.75 0 0 1 0-3.5h4.375a1.75 1.75 0 0 1 0 3.5z"/><path d="m102.875 25.747h-4.375a1.75 1.75 0 0 1 0-3.5h4.375a1.75 1.75 0 0 1 0 3.5z"/><path d="m89.5 25.747h-4.375a1.75 1.75 0 0 1 0-3.5h4.375a1.75 1.75 0 0 1 0 3.5z"/></g></svg>