<?xml version="1.0" encoding="iso-8859-1"?>
<!-- Generator: Adobe Illustrator 19.0.0, SVG Export Plug-In . SVG Version: 6.00 Build 0)  -->
<svg version="1.1" id="Capa_1" xmlns="http://www.w3.org/2000/svg" xmlns:xlink="http://www.w3.org/1999/xlink" x="0px" y="0px"
	 viewBox="0 0 512.001 512.001" style="enable-background:new 0 0 512.001 512.001;" xml:space="preserve">
<path style="fill:#B3D8F4;" d="M382.443,282.604l-85.524,40.975v61.465c0,52.976,34.083,100.393,85.524,118.982l0,0l0,0
	c51.441-18.59,85.524-66.006,85.524-118.982v-61.465L382.443,282.604z"/>
<path style="fill:#78B9EB;" d="M412.441,312.676l-60.073,29.845v44.77c0,38.587,23.94,73.123,60.073,86.663l0,0l0,0
	c16.146-6.051,29.846-16.301,40.074-29.224c9.932-17.99,15.452-38.387,15.452-59.686v-44.782L412.441,312.676z"/>
<path style="fill:#57A4FF;" d="M382.443,312.676l-60.073,29.845v44.77c0,38.587,23.94,73.123,60.073,86.663l0,0l0,0
	c36.133-13.54,60.073-48.077,60.073-86.663v-44.77L382.443,312.676z"/>
<path style="fill:#95D6A6;" d="M296.918,385.044v-61.465l85.524-40.975V40.916c0-18.456-75.756-33.417-169.205-33.417
	S44.032,22.461,44.032,40.916v430.122c0,18.456,75.756,33.417,169.205,33.417c58.619,0,110.271-5.888,140.635-14.831
	C318.772,466.277,296.918,427.45,296.918,385.044z"/>
<path style="fill:#78B9EB;" d="M326.916,385.044v-61.465l70.525-33.789l-14.999-7.187l-85.524,40.975v61.465
	c0,52.976,34.083,100.393,85.524,118.982l0,0l0,0c5.185-1.874,10.184-4.054,14.999-6.49
	C354.485,475.808,326.916,432.68,326.916,385.044z"/>
<path style="fill:#006DF0;" d="M352.368,387.291v-44.77l45.074-22.394l-14.999-7.452l-60.073,29.845v44.77
	c0,38.587,23.94,73.123,60.073,86.663l0,0l0,0c5.275-1.977,10.28-4.413,14.999-7.232
	C369.838,450.232,352.368,420.244,352.368,387.291z"/>
<g>
	<path style="fill:#64C37D;" d="M84.029,471.039V40.916c0-17.119,65.185-31.229,149.206-33.184
		C226.676,7.58,220.004,7.5,213.237,7.5c-93.45,0-169.205,14.961-169.205,33.417v430.122c0,18.456,75.756,33.417,169.205,33.417
		c6.76,0,13.421-0.082,19.974-0.234C149.201,502.266,84.029,488.156,84.029,471.039z"/>
	<ellipse style="fill:#64C37D;" cx="213.236" cy="40.94" rx="169.149" ry="33.441"/>
</g>
<g>
	<path style="fill:#FFFFFF;" d="M213.263,136.624c32.78,0,64.655-1.844,92.173-5.331l-1.886-14.88
		c-26.905,3.41-58.123,5.212-90.287,5.212h-0.025c-26.533,0-51.9-1.188-75.394-3.529l-1.487,14.925
		c23.986,2.392,49.854,3.604,76.882,3.604h0.024V136.624z"/>
	<path style="fill:#FFFFFF;" d="M330.571,127.416l-2.742-14.747c-4.587,0.854-9.472,1.663-14.521,2.407l2.187,14.839
		C320.729,129.143,325.801,128.303,330.571,127.416z"/>
	<path style="fill:#FFFFFF;" d="M355.65,121.59l-4.208-14.397c-4.234,1.238-8.959,2.431-14.045,3.546l3.213,14.651
		C346.028,124.201,351.088,122.923,355.65,121.59z"/>
</g>
<g>
	<path style="fill:#1D1D1F;" d="M157.079,446.823l-1.052,14.962c4.925,0.347,10.013,0.651,15.123,0.907l0.751-14.979
		C166.891,447.461,161.904,447.161,157.079,446.823z"/>
	<path style="fill:#1D1D1F;" d="M147.217,446.058c-5.01-0.425-9.973-0.903-14.753-1.424l-1.623,14.911
		c4.898,0.533,9.98,1.023,15.108,1.459L147.217,446.058z"/>
	<path style="fill:#1D1D1F;" d="M80.59,451.278c4.657,1.121,9.721,2.194,15.052,3.189l2.753-14.745
		c-5.078-0.947-9.887-1.966-14.294-3.027L80.59,451.278z"/>
	<path style="fill:#1D1D1F;" d="M120.775,458.36l1.894-14.88c-5.038-0.641-9.953-1.344-14.611-2.089l-2.369,14.812
		C110.503,456.973,115.579,457.698,120.775,458.36z"/>
	<path style="fill:#1D1D1F;" d="M63.187,359.465c10.051,2.92,22.21,5.503,36.136,7.676l2.313-14.819
		c-13.296-2.075-24.824-4.518-34.264-7.26L63.187,359.465z"/>
	<rect x="65.715" y="188.988" style="fill:#1D1D1F;" width="14.999" height="66.994"/>
	<path style="fill:#1D1D1F;" d="M389.942,277.881V40.916c0-13.648-17.669-23.494-55.605-30.986C301.914,3.526,258.907,0,213.237,0
		c-50.829,0-98.799,4.447-131.611,12.2l3.449,14.597c31.731-7.498,78.445-11.798,128.162-11.798
		c43.026,0,83.854,3.205,114.962,9.023c35.36,6.616,45.679,14.442,46.703,16.894c-1.026,2.453-11.347,10.279-46.703,16.893
		c-31.108,5.819-71.935,9.023-114.962,9.023s-83.853-3.205-114.961-9.023c-35.282-6.601-45.635-14.408-46.697-16.878
		c0.427-0.792,3.421-5.108,19.605-10.32l-4.599-14.276C46.362,22.85,36.532,30.89,36.532,40.916v430.122
		c0,9.518,8.8,17.214,26.902,23.526c14.37,5.011,34.867,9.253,59.274,12.269l1.839-14.886
		c-56.344-6.962-71.924-17.705-73.016-21.005v-82.718c9.152,4.776,22.59,8.865,40.606,12.424c32.422,6.404,75.43,9.93,121.099,9.93
		c27.184,0,53.997-1.286,78.025-3.723c3.32,19.656,11.108,38.353,23.04,54.95c6.52,9.07,14.093,17.227,22.53,24.387
		c-31.274,6.808-75.947,10.762-123.593,10.762c-25.98-0.001-50.867-1.142-73.967-3.39l-1.453,14.929
		c23.581,2.295,48.956,3.459,75.42,3.46c55.255,0,106.922-5.281,139.382-14.181c8.494,5.343,17.619,9.815,27.275,13.305l2.549,0.921
		l2.549-0.921c12.52-4.525,24.269-10.744,34.921-18.484l-8.817-12.134c-6.607,4.802-13.69,8.947-21.152,12.388v-13.864
		c36.135-15.783,60.073-51.976,60.073-91.695v-49.418l-67.573-33.571l-67.573,33.571v49.418c0,39.72,23.938,75.913,60.073,91.695
		v13.838c-42.588-19.715-70.525-61.776-70.525-107.779v-56.743l78.025-37.382l78.025,37.382v56.743
		c0,32.491-14.009,64.007-38.435,86.466l10.151,11.04c27.506-25.29,43.282-60.831,43.282-97.507v-66.188L389.942,277.881z
		 M329.869,387.29v-40.121l45.074-22.393v46.969h14.999v-46.969l45.074,22.393v40.121c0,31.519-17.731,60.423-45.074,75.043v-15.961
		h-14.999v15.961C347.6,447.713,329.869,418.809,329.869,387.29z M289.419,318.856v66.188c0,2.31,0.083,4.609,0.203,6.902
		c-23.496,2.379-49.743,3.634-76.385,3.634c-43.026,0-83.853-3.205-114.961-9.023c-35.88-6.712-45.98-14.674-46.745-17v-90.944
		c5.945,3.086,13.701,5.896,23.373,8.492l3.89-14.485c-23.903-6.418-27.037-12.155-27.263-12.649v-90.992
		c3.572,1.87,7.773,3.638,12.649,5.305c14.821,5.069,35.905,9.324,60.971,12.307l1.772-14.894
		c-22.694-2.7-41.935-6.457-55.648-10.862c-17.114-5.499-19.547-10.006-19.745-10.445V59.479c9.152,4.776,22.59,8.866,40.606,12.424
		c32.422,6.403,75.43,9.929,121.099,9.929c45.67,0,88.677-3.526,121.099-9.929c18.017-3.559,31.454-7.65,40.606-12.424v90.913
		c-0.765,2.326-10.865,10.288-46.745,17c-31.108,5.82-71.935,9.024-114.962,9.024c-25.048,0-49.132-1.063-71.58-3.161l-1.396,14.935
		c22.911,2.141,47.463,3.226,72.975,3.226c45.669,0,88.677-3.526,121.099-9.93c18.017-3.559,31.454-7.65,40.606-12.424v90.914
		c-0.765,2.326-10.865,10.288-46.745,17C297.086,282.795,256.259,286,213.233,286c-45.852,0-88.566-3.574-120.275-10.063
		L89.95,290.63c32.668,6.687,76.451,10.368,123.283,10.368c45.67,0,88.677-3.526,121.099-9.93
		c11.109-2.194,20.468-4.592,28.166-7.226L289.419,318.856z"/>
</g>
<g>
	<path style="fill:#FFFFFF;" d="M426.052,398.791l-14.846-2.139c-0.619,4.296-1.808,8.494-3.532,12.479l13.765,5.957
		C423.692,409.887,425.243,404.403,426.052,398.791z"/>
	<rect x="411.713" y="362.227" style="fill:#FFFFFF;" width="14.999" height="25.522"/>
	<path style="fill:#FFFFFF;" d="M416.054,425.031l-12.507-8.28c-2.4,3.626-5.269,6.918-8.526,9.783l9.907,11.261
		C409.179,434.054,412.922,429.759,416.054,425.031z"/>
</g>
<g>
</g>
<g>
</g>
<g>
</g>
<g>
</g>
<g>
</g>
<g>
</g>
<g>
</g>
<g>
</g>
<g>
</g>
<g>
</g>
<g>
</g>
<g>
</g>
<g>
</g>
<g>
</g>
<g>
</g>
</svg>
