<svg id="Layer_1" enable-background="new 0 0 256 256" height="512" viewBox="0 0 256 256" width="512" xmlns="http://www.w3.org/2000/svg"><g><path d="m32.035 180.546c-7.535 0-13.665-6.13-13.665-13.665v-123.776c0-7.535 6.13-13.665 13.665-13.665h191.931c7.535 0 13.665 6.13 13.665 13.665v123.776c0 7.535-6.13 13.665-13.665 13.665z" fill="#63bce7"/><path d="m229.221 154.881c0 2.891-2.365 5.256-5.256 5.256h-191.93c-2.891 0-5.256-2.365-5.256-5.256v-111.776c0-2.891 2.365-5.256 5.256-5.256h191.931c2.891 0 5.256 2.365 5.256 5.256v111.776z" fill="#f46275"/><g><path d="m44.838 154.881v-111.776c0-2.891 2.365-5.256 5.256-5.256h-18.059c-2.891 0-5.256 2.365-5.256 5.256v111.777c0 2.891 2.365 5.256 5.256 5.256h18.059c-2.891-.001-5.256-2.366-5.256-5.257z" fill="#f43075"/></g><g><path d="m211.162 154.881v-111.776c0-2.891-2.365-5.256-5.256-5.256h18.059c2.891 0 5.256 2.365 5.256 5.256v111.777c0 2.891-2.365 5.256-5.256 5.256h-18.059c2.891-.001 5.256-2.366 5.256-5.257z" fill="#f48875"/></g><path d="m96.752 180.546h62.496v19.017h-62.496z" fill="#f8af23"/><g><path d="m96.752 180.546h18.059v19.017h-18.059z" fill="#f87023"/></g><g><path d="m141.19 180.546h18.059v19.017h-18.059z" fill="#f8d323"/></g><circle cx="128" cy="170.342" fill="#f8af23" r="4.5"/><path d="m178.687 215.014h-101.375v-10.45c0-2.761 2.239-5 5-5h91.375c2.761 0 5 2.239 5 5z" fill="#9e9e9e"/><g><path d="m100.371 199.564h-18.059c-2.761 0-5 2.239-5 5v10.45h18.059v-10.45c0-2.762 2.239-5 5-5z" fill="#707070"/></g><g><path d="m155.629 199.564h18.059c2.761 0 5 2.239 5 5v10.45h-18.059v-10.45c0-2.762-2.239-5-5-5z" fill="#cecece"/></g><g><g><g><circle cx="167.303" cy="99.821" fill="#f46275" r="38.458"/><circle cx="167.303" cy="99.821" fill="#f8af23" r="28.617"/></g><path d="m167.303 180.546c-5.663 0-10.253-4.591-10.253-10.253v-13.943c0-5.663 4.591-10.253 10.253-10.253 5.663 0 10.253 4.591 10.253 10.253v13.943c.001 5.663-4.59 10.253-10.253 10.253z" fill="#f8af23"/></g><g><path d="m181.554 99.804v9.78c0 .762-.286 1.423-.857 1.983s-1.249.841-2.033.841h-8.604v6.89c0 .784-.28 1.451-.84 2s-1.222.823-1.983.823c-.806 0-1.49-.274-2.05-.823s-.841-1.216-.841-2v-6.957h-8.536c-.762 0-1.423-.274-1.983-.823s-.841-1.216-.841-2 .274-1.451.823-2 1.216-.823 2-.823h19.964v-4.067h-19.897c-.784 0-1.451-.269-1.999-.807-.55-.538-.824-1.21-.824-2.017v-9.746c0-.784.274-1.451.824-2 .549-.549 1.215-.823 1.999-.823h8.469v-6.89c0-.762.264-1.423.79-1.983s1.238-.84 2.134-.84c.762 0 1.417.275 1.966.823.549.549.823 1.216.823 2v6.89h8.671c.784 0 1.462.28 2.033.84s.857 1.222.857 1.983c0 .784-.286 1.462-.857 2.033s-1.249.857-2.033.857h-19.964v4.033h19.897c.784 0 1.462.281 2.033.841.573.559.859 1.22.859 1.982z" fill="#3f3679"/></g><g><path d="m50.238 114h15.75v24.279h-15.75z" fill="#63bce7"/><path d="m73.238 103.433h15.75v34.846h-15.75z" fill="#9e9e9e"/><path d="m96.238 92.865h15.75v45.414h-15.75z" fill="#f8af23"/></g></g><g fill="#3f3679"><path d="m32.035 182.046h63.217v16.018h-12.94c-3.584 0-6.5 2.916-6.5 6.5v8.95h-48.112c-.829 0-1.5.671-1.5 1.5s.671 1.5 1.5 1.5h49.612 101.375 49.613c.828 0 1.5-.671 1.5-1.5s-.672-1.5-1.5-1.5h-48.112v-8.95c0-3.584-2.916-6.5-6.5-6.5h-12.939v-16.018h63.218c8.361 0 15.164-6.803 15.164-15.165v-123.776c0-8.362-6.803-15.165-15.164-15.165h-191.932c-8.362 0-15.165 6.803-15.165 15.165v123.776c0 8.362 6.803 15.165 15.165 15.165zm145.152 22.518v8.95h-98.375v-8.95c0-1.93 1.57-3.5 3.5-3.5h14.439 62.496 14.439c1.931 0 3.501 1.57 3.501 3.5zm-19.439-6.5h-59.496v-16.018h59.496zm.802-27.771v-13.943c0-4.827 3.927-8.753 8.754-8.753 4.826 0 8.753 3.927 8.753 8.753v13.943c0 4.827-3.927 8.753-8.753 8.753-4.827 0-8.754-3.926-8.754-8.753zm-3-13.943v2.287h-123.515c-2.071 0-3.756-1.685-3.756-3.756v-111.776c0-2.071 1.685-3.756 3.756-3.756h191.931c2.07 0 3.755 1.685 3.755 3.756v111.776c0 2.071-1.685 3.756-3.755 3.756h-44.909v-2.287c0-5.972-4.48-10.906-10.253-11.647v-4.962c21.34-.793 38.458-18.39 38.458-39.92 0-22.033-17.925-39.958-39.958-39.958s-39.958 17.925-39.958 39.958c0 21.53 17.119 39.128 38.458 39.92v4.962c-5.774.741-10.254 5.675-10.254 11.647zm11.754-19.571c-20.379 0-36.958-16.58-36.958-36.958s16.579-36.958 36.958-36.958 36.958 16.58 36.958 36.958-16.579 36.958-36.958 36.958zm-147.434-93.674c0-6.708 5.457-12.165 12.165-12.165h191.931c6.707 0 12.164 5.457 12.164 12.165v123.776c0 6.708-5.457 12.165-12.164 12.165h-48.846c2.409-2.154 3.937-5.275 3.937-8.753v-8.656h44.909c3.725 0 6.755-3.031 6.755-6.756v-111.776c0-3.725-3.03-6.756-6.755-6.756h-191.931c-3.725 0-6.756 3.031-6.756 6.756v111.776c0 3.725 3.031 6.756 6.756 6.756h123.515v8.656c0 3.479 1.528 6.6 3.937 8.753h-.239-62.496-64.717c-6.708 0-12.165-5.457-12.165-12.165z"/><path d="m128 176.342c3.309 0 6-2.691 6-6s-2.691-6-6-6-6 2.691-6 6 2.691 6 6 6zm0-9c1.654 0 3 1.346 3 3s-1.346 3-3 3-3-1.346-3-3 1.346-3 3-3z"/><path d="m27.7 225.06h-18.172c-.829 0-1.5.671-1.5 1.5s.671 1.5 1.5 1.5h18.172c.829 0 1.5-.671 1.5-1.5s-.671-1.5-1.5-1.5z"/><path d="m246.472 225.06h-18.172c-.828 0-1.5.671-1.5 1.5s.672 1.5 1.5 1.5h18.172c.828 0 1.5-.671 1.5-1.5s-.672-1.5-1.5-1.5z"/><path d="m213.788 225.06h-171.577c-.829 0-1.5.671-1.5 1.5s.671 1.5 1.5 1.5h171.577c.828 0 1.5-.671 1.5-1.5s-.672-1.5-1.5-1.5z"/><path d="m9.528 216.514h7.803c.829 0 1.5-.671 1.5-1.5s-.671-1.5-1.5-1.5h-7.803c-.829 0-1.5.671-1.5 1.5s.671 1.5 1.5 1.5z"/><path d="m237.169 215.014c0 .829.672 1.5 1.5 1.5h7.803c.828 0 1.5-.671 1.5-1.5s-.672-1.5-1.5-1.5h-7.803c-.828 0-1.5.672-1.5 1.5z"/><path d="m167.304 69.704c-16.606 0-30.117 13.51-30.117 30.117s13.511 30.117 30.117 30.117 30.116-13.51 30.116-30.117-13.51-30.117-30.116-30.117zm0 57.234c-14.952 0-27.117-12.165-27.117-27.117s12.165-27.117 27.117-27.117 27.116 12.165 27.116 27.117-12.164 27.117-27.116 27.117z"/><path d="m65.988 112.5h-15.75c-.829 0-1.5.671-1.5 1.5v24.279c0 .829.671 1.5 1.5 1.5h15.75c.829 0 1.5-.671 1.5-1.5v-24.279c0-.829-.671-1.5-1.5-1.5zm-1.5 24.279h-12.75v-21.279h12.75z"/><path d="m88.988 101.933h-15.75c-.829 0-1.5.671-1.5 1.5v34.847c0 .829.671 1.5 1.5 1.5h15.75c.829 0 1.5-.671 1.5-1.5v-34.847c0-.829-.671-1.5-1.5-1.5zm-1.5 34.846h-12.75v-31.847h12.75z"/><path d="m111.988 91.365h-15.75c-.829 0-1.5.671-1.5 1.5v45.414c0 .829.671 1.5 1.5 1.5h15.75c.829 0 1.5-.671 1.5-1.5v-45.414c0-.828-.671-1.5-1.5-1.5zm-1.5 45.414h-12.75v-42.414h12.75z"/><path d="m111.02 61.847c-.586-.586-1.535-.586-2.121 0-.586.585-.586 1.536 0 2.121l2.188 2.188h-7.656c-.32 0-.631.102-.889.292l-53.192 39.12c-.667.491-.811 1.43-.32 2.097.294.4.749.611 1.209.611.309 0 .62-.095.888-.292l52.796-38.829h7.164l-2.188 2.188c-.586.585-.586 1.536 0 2.121.293.293.677.439 1.061.439s.768-.146 1.061-.439l4.749-4.749c.586-.585.586-1.536 0-2.121z"/></g></g></svg>