<?xml version="1.0" encoding="iso-8859-1"?>
<!-- Generator: Adobe Illustrator 19.0.0, SVG Export Plug-In . SVG Version: 6.00 Build 0)  -->
<svg version="1.1" id="Capa_1" xmlns="http://www.w3.org/2000/svg" xmlns:xlink="http://www.w3.org/1999/xlink" x="0px" y="0px"
	 viewBox="0 0 512 512" style="enable-background:new 0 0 512 512;" xml:space="preserve">
<path style="fill:#CAE8F9;" d="M422,120v346c0,24.853-20.147,46-45,46H45c-24.853,0-45-21.147-45-46V45C0,20.147,20.147,0,45,0h257
	L422,120z"/>
<path style="fill:#B7E0F6;" d="M422,120v346c0,24.853-20.147,46-45,46H212V0h90L422,120z"/>
<path style="fill:#CAE8F9;" d="M413.211,90L332,8.789C327.406,4.195,324.099,0,317,0h-15v105c0,8.284,6.716,15,15,15h105v-15
	C422,98.211,417.695,94.484,413.211,90z"/>
<path style="fill:#1689FC;" d="M151,150c-49.501,0-91,40.499-91,90v15c0,8.401,6.599,15,15,15h152c8.401,0,15-6.599,15-15v-15
	C242,190.499,200.501,150,151,150z"/>
<path style="fill:#136EF1;" d="M242,240v15c0,8.401-6.599,15-15,15h-76V150C200.501,150,242,190.499,242,240z"/>
<path style="fill:#18A7FC;" d="M151,60c-32.999,0-61,27.001-61,60s28.001,60,61,60s61-27.001,61-60S183.999,60,151,60z"/>
<path style="fill:#1689FC;" d="M212,120c0,32.999-28.001,60-61,60V60C183.999,60,212,87.001,212,120z"/>
<g>
	<path style="fill:#4DBBEB;" d="M347,180h-60c-8.291,0-15-6.709-15-15s6.709-15,15-15h60c8.291,0,15,6.709,15,15
		S355.291,180,347,180z"/>
	<path style="fill:#4DBBEB;" d="M347,240h-60c-8.291,0-15-6.709-15-15s6.709-15,15-15h60c8.291,0,15,6.709,15,15
		S355.291,240,347,240z"/>
</g>
<g>
	<path style="fill:#81C8EE;" d="M197,330H75c-8.291,0-15-6.709-15-15s6.709-15,15-15h122c8.291,0,15,6.709,15,15
		S205.291,330,197,330z"/>
	<path style="fill:#81C8EE;" d="M197,390H75c-8.291,0-15-6.709-15-15s6.709-15,15-15h122c8.291,0,15,6.709,15,15
		S205.291,390,197,390z"/>
	<path style="fill:#81C8EE;" d="M242,435c0,8.399-6.599,15-15,15h-60c-8.401,0-16-6.601-16-15c0-8.401,7.599-15,16-15h60
		C235.401,420,242,426.599,242,435z"/>
</g>
<path style="fill:#0F60CF;" d="M498.794,233.448l-31.82,31.82h-42.426l-21.213-21.213v-42.426l31.82-31.82
	c17.607-17.607,46.032-17.607,63.64,0C516.402,187.416,516.402,215.841,498.794,233.448z"/>
<path style="fill:#0A4EAF;" d="M498.794,233.448l-31.82,31.82h-42.426l-10.607-10.607l84.853-84.853
	C516.402,187.416,516.402,215.841,498.794,233.448z"/>
<polygon style="fill:#FEA832;" points="466.975,265.268 329.089,403.154 307.876,403.154 265.449,360.727 265.449,339.514 
	403.335,201.628 "/>
<polygon style="fill:#FE9923;" points="466.975,265.268 329.089,403.154 307.876,403.154 286.662,381.94 435.155,233.448 "/>
<path style="fill:#FEDB41;" d="M333.33,392.547c0-15.698-6.364-30.122-16.758-40.517c-10.394-10.394-24.819-16.758-40.517-16.758
	c-5.728-0.212-10.819,3.18-13.363,8.272l-42.426,84.853c-2.97,5.516-1.91,12.516,2.757,17.183
	c4.666,4.666,11.667,5.727,17.183,2.757l84.853-42.426C330.151,403.366,333.543,398.275,333.33,392.547z"/>
<path style="fill:#FCBF29;" d="M333.33,392.547c0.212,5.728-3.18,10.819-8.272,13.363l-84.853,42.426
	c-5.516,2.97-12.516,1.91-17.183-2.757l93.55-93.55C326.967,362.425,333.33,376.849,333.33,392.547z"/>
<g>
</g>
<g>
</g>
<g>
</g>
<g>
</g>
<g>
</g>
<g>
</g>
<g>
</g>
<g>
</g>
<g>
</g>
<g>
</g>
<g>
</g>
<g>
</g>
<g>
</g>
<g>
</g>
<g>
</g>
</svg>
