<svg id="Out_line" height="512" viewBox="0 0 512 512" width="512" xmlns="http://www.w3.org/2000/svg" data-name="Out line"><path d="m469.65723 98.34277-80-80a8.00235 8.00235 0 0 0 -5.65723-2.34277h-200a32.03667 32.03667 0 0 0 -32 32v232h16v-232a16.01833 16.01833 0 0 1 16-16h192v48a32.03667 32.03667 0 0 0 32 32h48v352a16.01833 16.01833 0 0 1 -16 16h-256a15.96606 15.96606 0 0 1 -10.66406-4.07227l-10.67188 11.92188a31.94745 31.94745 0 0 0 21.33594 8.15039h256a32.03667 32.03667 0 0 0 32-32v-360a8.00235 8.00235 0 0 0 -2.34277-5.65723zm-77.65723-18.34277v-36.68652l52.68652 52.68652h-36.68652a16.01833 16.01833 0 0 1 -16-16z"/><path d="m184 48h32v16h-32z"/><path d="m232 48h56v16h-56z"/><path d="m184 80h48v16h-48z"/><path d="m184 128h56v16h-56z"/><path d="m256 128h64v16h-64z"/><path d="m184 160h72v16h-72z"/><path d="m224 192h80v16h-80z"/><path d="m320 192h72v16h-72z"/><path d="m408 192h32v16h-32z"/><path d="m184 224h80v16h-80z"/><path d="m280 224h72v16h-72z"/><path d="m368 224h72v16h-72z"/><path d="m184 256h120v16h-120z"/><path d="m320 256h72v16h-72z"/><path d="m408 256h32v16h-32z"/><path d="m232 408a8.00039 8.00039 0 0 0 -8 8v48a8.00039 8.00039 0 0 0 8 8h48a8.00039 8.00039 0 0 0 8-8v-48a8.00039 8.00039 0 0 0 -8-8zm40 48h-32v-32h32z"/><path d="m304 464a8.00039 8.00039 0 0 0 8 8h48a8.00039 8.00039 0 0 0 8-8v-88a8.00039 8.00039 0 0 0 -8-8h-48a8.00039 8.00039 0 0 0 -8 8zm16-80h32v72h-32z"/><path d="m392 472h48a8.00039 8.00039 0 0 0 8-8v-120a8.00039 8.00039 0 0 0 -8-8h-48a8.00039 8.00039 0 0 0 -8 8v120a8.00039 8.00039 0 0 0 8 8zm8-120h32v104h-32z"/><path d="m56 384a72.08438 72.08438 0 0 1 68.59985-71.91357l-10.25708 10.25634 11.31446 11.31446 24-24a8.00122 8.00122 0 0 0 0-11.31446l-24-24-11.31446 11.31446 10.40943 10.40918a88.00607 88.00607 0 0 0 -40.75806 164.15625l8.01172-13.84961a72.28231 72.28231 0 0 1 -36.00586-62.37305z"/><path d="m216 384a88.32805 88.32805 0 0 0 -43.99414-76.22266l-8.01172 13.84966a72.00636 72.00636 0 0 1 -32.594 134.28662l10.25708-10.25634-11.31446-11.31446-24 24a8.00122 8.00122 0 0 0 0 11.31446l24 24 11.31446-11.31446-10.40942-10.40923a88.10189 88.10189 0 0 0 84.7522-87.93359z"/><path d="m133.65723 389.65723a8.00235 8.00235 0 0 0 2.34277-5.65723v-40h-16v36.68652l-21.65723 21.65625 11.31446 11.31446z"/></svg>