<svg id="Capa_1" enable-background="new 0 0 510 510" height="512" viewBox="0 0 510 510" width="512" xmlns="http://www.w3.org/2000/svg" xmlns:xlink="http://www.w3.org/1999/xlink"><linearGradient id="lg1"><stop offset="0" stop-color="#537983"/><stop offset="1" stop-color="#3e5959"/></linearGradient><linearGradient id="SVGID_1_" gradientUnits="userSpaceOnUse" x1="205.07" x2="317.354" xlink:href="#lg1" y1="110.869" y2="360.622"/><linearGradient id="lg2"><stop offset="0" stop-color="#eef5f6"/><stop offset="1" stop-color="#cbe5e8"/></linearGradient><linearGradient id="SVGID_2_" gradientUnits="userSpaceOnUse" x1="143.416" x2="337.64" xlink:href="#lg2" y1="104.064" y2="298.288"/><linearGradient id="SVGID_3_" gradientUnits="userSpaceOnUse" x1="255" x2="255" xlink:href="#lg1" y1="362.568" y2="421.334"/><linearGradient id="SVGID_4_" gradientUnits="userSpaceOnUse" x1="255" x2="255" xlink:href="#lg1" y1="402.472" y2="426.272"/><linearGradient id="SVGID_5_" gradientUnits="userSpaceOnUse" x1="255" x2="255" xlink:href="#lg1" y1="407.161" y2="390.645"/><linearGradient id="SVGID_6_" gradientUnits="userSpaceOnUse" x1="255" x2="255" xlink:href="#lg1" y1="331.093" y2="382.513"/><linearGradient id="SVGID_7_" gradientUnits="userSpaceOnUse" x1="380.198" x2="157.198" y1="381.165" y2="207.165"><stop offset="0" stop-color="#cbe5e8" stop-opacity="0"/><stop offset="1" stop-color="#7ca1b1"/></linearGradient><linearGradient id="lg3"><stop offset="0" stop-color="#ffe177"/><stop offset="1" stop-color="#fe9738"/></linearGradient><linearGradient id="SVGID_8_" gradientUnits="userSpaceOnUse" x1="179.382" x2="207.207" xlink:href="#lg3" y1="283.703" y2="372.394"/><linearGradient id="lg4"><stop offset="0" stop-color="#fe99a0"/><stop offset="1" stop-color="#fd4755"/></linearGradient><linearGradient id="SVGID_9_" gradientUnits="userSpaceOnUse" x1="178.059" x2="163.111" xlink:href="#lg4" y1="277.078" y2="300.993"/><linearGradient id="SVGID_10_" gradientUnits="userSpaceOnUse" x1="216.844" x2="229.617" xlink:href="#lg4" y1="279.607" y2="299.99"/><linearGradient id="lg5"><stop offset="0" stop-color="#eb9c8d"/><stop offset="1" stop-color="#bb5d4c"/></linearGradient><linearGradient id="SVGID_11_" gradientUnits="userSpaceOnUse" x1="118.803" x2="137.662" xlink:href="#lg5" y1="197.082" y2="215.94"/><linearGradient id="SVGID_12_" gradientUnits="userSpaceOnUse" x1="250.674" x2="277.063" xlink:href="#lg5" y1="193.499" y2="219.889"/><linearGradient id="SVGID_13_" gradientUnits="userSpaceOnUse" x1="128.844" x2="264.489" xlink:href="#lg5" y1="208.378" y2="208.378"/><linearGradient id="SVGID_14_" gradientUnits="userSpaceOnUse" x1="196.667" x2="196.667" y1="210.368" y2="246.061"><stop offset="0" stop-color="#a44f3e" stop-opacity="0"/><stop offset=".9972" stop-color="#6d3326"/></linearGradient><linearGradient id="SVGID_15_" gradientUnits="userSpaceOnUse" x1="196.667" x2="196.667" xlink:href="#lg2" y1="249.847" y2="262.418"/><linearGradient id="SVGID_16_" gradientUnits="userSpaceOnUse" x1="144.852" x2="176.791" xlink:href="#lg1" y1="202.597" y2="202.597"/><linearGradient id="SVGID_17_" gradientUnits="userSpaceOnUse" x1="216.543" x2="248.482" xlink:href="#lg1" y1="202.597" y2="202.597"/><linearGradient id="SVGID_18_" gradientUnits="userSpaceOnUse" x1="162.043" x2="210.812" xlink:href="#lg1" y1="127.075" y2="175.844"/><linearGradient id="SVGID_19_" gradientUnits="userSpaceOnUse" x1="196.667" x2="196.667" xlink:href="#lg2" y1="315.667" y2="335.805"/><linearGradient id="SVGID_20_" gradientUnits="userSpaceOnUse" x1="102.619" x2="126.621" xlink:href="#lg3" y1="304.083" y2="328.085"/><linearGradient id="SVGID_21_" gradientUnits="userSpaceOnUse" x1="142.557" x2="155.547" xlink:href="#lg5" y1="314.98" y2="356.388"/><linearGradient id="SVGID_22_" gradientUnits="userSpaceOnUse" x1="256.195" x2="291.083" xlink:href="#lg3" y1="314.369" y2="349.256"/><linearGradient id="SVGID_23_" gradientUnits="userSpaceOnUse" x1="227.411" x2="259.375" xlink:href="#lg5" y1="317.032" y2="348.996"/><linearGradient id="SVGID_24_" gradientUnits="userSpaceOnUse" x1="359.615" x2="359.615" xlink:href="#lg4" y1="113.438" y2="137.506"/><linearGradient id="SVGID_25_" gradientUnits="userSpaceOnUse" x1="394.684" x2="394.684" xlink:href="#lg4" y1="113.438" y2="137.506"/><linearGradient id="SVGID_26_" gradientUnits="userSpaceOnUse" x1="427.771" x2="427.771" xlink:href="#lg4" y1="113.438" y2="137.506"/><linearGradient id="SVGID_27_" gradientUnits="userSpaceOnUse" x1="323.667" x2="323.667" xlink:href="#lg4" y1="109.882" y2="133.216"/><g><g><g><path d="m456.744 71.883h-403.488c-8.838 0-16.003 7.165-16.003 16.003v271.528h435.494v-271.528c0-8.838-7.165-16.003-16.003-16.003z" fill="url(#SVGID_1_)"/><path d="m440.741 87.274h-371.482c-8.887 0-16.091 7.204-16.091 16.091v224.568c0 8.887 7.204 16.091 16.091 16.091h40.445l88.56-6 85.406 6h157.071c8.887 0 16.091-7.204 16.091-16.091v-224.569c-.001-8.886-7.205-16.09-16.091-16.09z" fill="url(#SVGID_2_)"/><g><path d="m469.851 357.321h-429.702c-4.273 0-8.253 2.172-10.566 5.765l-24.871 38.643c-1.657 2.575.191 5.963 3.253 5.963h494.069c3.062 0 4.91-3.388 3.253-5.963l-24.871-38.643c-2.312-3.593-6.292-5.765-10.565-5.765z" fill="url(#SVGID_3_)"/><path d="m494.259 438.117h-478.518c-8.694 0-15.741-7.047-15.741-15.74v-9.444c0-8.693 7.047-15.741 15.741-15.741h478.518c8.693 0 15.741 7.047 15.741 15.741v9.444c0 8.693-7.047 15.74-15.741 15.74z" fill="url(#SVGID_4_)"/><path d="m229.815 387.048h50.37c5.216 0 9.444 4.228 9.444 9.444 0 5.216-4.228 9.444-9.444 9.444h-50.37c-5.216 0-9.444-4.228-9.444-9.444-.001-5.216 4.228-9.444 9.444-9.444z" fill="url(#SVGID_5_)"/><path d="m459.184 375.81-10.401-18.489h-387.566l-10.401 18.489c-1.947 3.462.554 7.739 4.526 7.739h399.316c3.972 0 6.474-4.277 4.526-7.739z" fill="url(#SVGID_6_)"/></g></g></g><path d="m456.831 327.932v-17.344l-196.621-196.621c-4.95-6.733-12.924-11.105-21.921-11.105h-81.251c-15.02 0-27.196 12.176-27.196 27.196v55.651c-9.778 2.824-16.937 11.822-16.937 22.51 0 7.967 3.983 14.989 10.06 19.221 1.587 2.268 6.869 7.243 7.448 7.9 2.097 16.614 10.184 31.358 22.056 41.981-2.89 2.095-5.936 5.152-4.249 7.927-8.666 4.657-16.2 11.143-22.091 18.942h-8.294c-11.275 0-20.416 9.141-20.416 20.416 0 7.118 3.651 13.368 9.175 17.016.562.853 1.205 1.643 1.886 2.4h332.262c8.885.001 16.089-7.203 16.089-16.09z" fill="url(#SVGID_7_)"/><g><g><path d="m111.454 344.023c0-37.457 30.365-67.822 67.822-67.822h34.781c37.457 0 67.822 30.365 67.822 67.822s-42.256-5-84.687-5c-42.78 0-85.738 5-85.738 5z" fill="url(#SVGID_8_)"/><g><path d="m155.63 273.76s-11.958 5.979-8.153 10.871c2.799 3.598 17.065 17.488 24.416 24.583 2.437 2.352 6.304 2.312 8.699-.083l16.076-16.076z" fill="url(#SVGID_9_)"/><path d="m237.704 273.76s11.958 5.979 8.153 10.871c-2.799 3.598-17.065 17.488-24.416 24.583-2.437 2.352-6.304 2.312-8.699-.083l-16.076-16.076z" fill="url(#SVGID_10_)"/></g><g><g><path d="m111.904 207.219c0-11.088 7.697-20.379 18.039-22.82 2.765-.653 5.407 1.485 5.407 4.326v36.989c0 2.841-2.643 4.978-5.407 4.326-10.342-2.442-18.039-11.733-18.039-22.821z" fill="url(#SVGID_11_)"/><path d="m281.429 207.219c0-11.088-7.697-20.379-18.039-22.82-2.765-.653-5.407 1.485-5.407 4.326v36.989c0 2.841 2.643 4.978 5.407 4.326 10.342-2.442 18.039-11.733 18.039-22.821z" fill="url(#SVGID_12_)"/></g><path d="m196.667 293.591c-37.457 0-67.822-30.365-67.822-67.822v-34.781c0-37.457 30.365-67.822 67.822-67.822 37.457 0 67.822 30.365 67.822 67.822v34.781c0 37.457-30.365 67.822-67.822 67.822z" fill="url(#SVGID_13_)"/><path d="m200.413 234.174h-7.493c-6.245 0-10.973-5.643-9.879-11.792l4.296-24.148h18.661l4.296 24.148c1.093 6.148-3.636 11.792-9.881 11.792z" fill="url(#SVGID_14_)"/></g><path d="m215.993 267.852h-38.653c-4.516 0-8.177-3.661-8.177-8.177v-3.964c0-4.516 3.661-8.177 8.177-8.177h38.653c4.516 0 8.177 3.661 8.177 8.177v3.964c0 4.516-3.661 8.177-8.177 8.177z" fill="url(#SVGID_15_)"/><g><g><path d="m171.835 213.06c-2.737 0-4.956-2.218-4.956-4.956 0-3.341-2.718-6.059-6.058-6.059-3.341 0-6.059 2.718-6.059 6.059 0 2.737-2.218 4.956-4.956 4.956s-4.956-2.218-4.956-4.956c0-8.806 7.164-15.97 15.97-15.97s15.969 7.164 15.969 15.97c.002 2.737-2.217 4.956-4.954 4.956z" fill="url(#SVGID_16_)"/></g><g><path d="m243.526 213.06c-2.737 0-4.956-2.218-4.956-4.956 0-3.341-2.718-6.059-6.059-6.059-3.34 0-6.058 2.718-6.058 6.059 0 2.737-2.218 4.956-4.956 4.956-2.737 0-4.956-2.218-4.956-4.956 0-8.806 7.163-15.97 15.969-15.97s15.97 7.164 15.97 15.97c.002 2.737-2.217 4.956-4.954 4.956z" fill="url(#SVGID_17_)"/></g></g><path d="m136.671 203.975v-8.137c0-10.586 8.582-19.168 19.168-19.168h81.648c10.586 0 19.168 8.582 19.168 19.168v8.137c0 2.162 1.753 3.915 3.915 3.915 2.162 0 3.915-1.753 3.915-3.915v-74.918c0-15.02-12.176-27.196-27.196-27.196h-81.251c-15.02 0-27.196 12.176-27.196 27.196v74.918c0 2.162 1.753 3.915 3.915 3.915 2.161 0 3.914-1.753 3.914-3.915z" fill="url(#SVGID_18_)"/></g><path d="m235.167 339.023-29.088 5h-18.529l-29.384-5v-27.023c0-3.728 3.022-6.75 6.75-6.75h63.5c3.728 0 6.75 3.022 6.75 6.75v27.023z" fill="url(#SVGID_19_)"/><g><path d="m152.425 339.023-30.292 5h-13.08c-6.979 0-12.636-5.657-12.636-12.636v-7.78c0-11.276 9.141-20.416 20.416-20.416h15.176c11.276 0 20.416 9.141 20.416 20.416z" fill="url(#SVGID_20_)"/><path d="m187.603 344.023h-64.27c-7.566 0-13.699-6.133-13.699-13.699 0-7.566 6.133-13.699 13.699-13.699h41.165c12.76 0 23.105 10.344 23.105 23.105z" fill="url(#SVGID_21_)"/></g><g><path d="m240.908 339.023 30.021 5h13.351c6.979 0 12.636-5.657 12.636-12.636v-7.78c0-11.276-9.141-20.416-20.416-20.416h-15.176c-11.276 0-20.416 9.141-20.416 20.416z" fill="url(#SVGID_22_)"/><path d="m205.73 344.023h64.27c7.566 0 13.699-6.133 13.699-13.699 0-7.566-6.133-13.699-13.699-13.699h-41.165c-12.76 0-23.105 10.344-23.105 23.105z" fill="url(#SVGID_23_)"/></g></g><g><g><path d="m343.909 101.63c0-1.549 1.177-2.912 2.974-2.912h12.825c8.488 0 15.242 3.16 15.242 13.259 0 6.939-3.16 10.905-7.497 12.577l7.559 13.693c.248.372.31.805.31 1.115 0 2.416-3.222 5.019-6.072 5.019-1.239 0-2.416-.496-3.098-1.797l-8.488-16.481h-4.089v14.932c0 1.983-2.416 2.974-4.833 2.974s-4.833-.991-4.833-2.974zm9.665 5.514v11.524h6.134c3.469 0 5.576-1.425 5.576-5.762s-2.107-5.762-5.576-5.762z" fill="url(#SVGID_24_)"/><path d="m389.759 117.615h9.294c1.859 0 2.912 1.797 2.912 3.779 0 1.673-.867 3.655-2.912 3.655h-9.294v10.533h16.605c1.859 0 2.912 1.983 2.912 4.275 0 1.983-.867 4.151-2.912 4.151h-22.057c-2.106 0-4.213-.991-4.213-2.974v-39.343c0-1.983 2.107-2.974 4.213-2.974h22.057c2.045 0 2.912 2.169 2.912 4.151 0 2.292-1.053 4.275-2.912 4.275h-16.605z" fill="url(#SVGID_25_)"/><path d="m427.802 107.144c-3.532 0-5.576 1.983-5.576 6.196v16.419c0 4.213 2.045 6.196 5.638 6.196 4.957 0 5.266-3.779 5.452-6.196.186-2.292 2.293-2.912 4.771-2.912 3.346 0 4.895.867 4.895 4.585 0 8.24-6.691 12.949-15.551 12.949-8.116 0-14.87-3.965-14.87-14.622v-16.419c0-10.657 6.753-14.622 14.87-14.622 8.86 0 15.551 4.461 15.551 12.33 0 3.718-1.549 4.585-4.833 4.585-2.602 0-4.709-.682-4.833-2.912-.062-1.612-.248-5.577-5.514-5.577z" fill="url(#SVGID_26_)"/></g><circle cx="323.667" cy="121.549" fill="url(#SVGID_27_)" r="11.667"/></g></g></svg>