<svg height="512" viewBox="0 0 64 64" width="512" xmlns="http://www.w3.org/2000/svg" xmlns:xlink="http://www.w3.org/1999/xlink"><linearGradient id="New_Gradient_Swatch_1" gradientUnits="userSpaceOnUse" x1="32" x2="32" y1="-.73" y2="67.645"><stop offset="0" stop-color="#fff33b"/><stop offset=".014" stop-color="#fee72e"/><stop offset=".042" stop-color="#fed51b"/><stop offset=".07" stop-color="#fdca10"/><stop offset=".1" stop-color="#fdc70c"/><stop offset=".4" stop-color="#f3903f"/><stop offset=".8" stop-color="#ed683c"/><stop offset="1" stop-color="#e93e3a"/></linearGradient><linearGradient id="New_Gradient_Swatch_1-2" x1="48" x2="48" xlink:href="#New_Gradient_Swatch_1" y1="-.73" y2="67.645"/><linearGradient id="New_Gradient_Swatch_1-3" x1="44" x2="44" xlink:href="#New_Gradient_Swatch_1" y1="-.73" y2="67.645"/><linearGradient id="New_Gradient_Swatch_1-4" x1="11" x2="11" xlink:href="#New_Gradient_Swatch_1" y1="-.73" y2="67.645"/><linearGradient id="New_Gradient_Swatch_1-6" x1="53" x2="53" xlink:href="#New_Gradient_Swatch_1" y1="-.73" y2="67.645"/><g id="virus-coronavirus-worldwide-internet-network"><path d="m50 20h-4.05a13.985 13.985 0 0 0 -27.9 0h-4.05a5 5 0 0 0 -5 5v22a5 5 0 0 0 5 5h13v4h-3a3.009 3.009 0 0 0 -3 3v2a1 1 0 0 0 1 1h20a1 1 0 0 0 1-1v-2a3.009 3.009 0 0 0 -3-3h-3v-4h13a5 5 0 0 0 5-5v-22a5 5 0 0 0 -5-5zm-6.05 0h-4.97a25.888 25.888 0 0 0 -.75-5.46 14.322 14.322 0 0 0 2.57-1.67 11.938 11.938 0 0 1 3.15 7.13zm-11.95 6a13.878 13.878 0 0 0 -4.36.71 24.215 24.215 0 0 1 -.62-4.71h9.96a24.215 24.215 0 0 1 -.62 4.71 13.878 13.878 0 0 0 -4.36-.71zm3.8 2.63c-.99 2.73-2.44 4.37-3.8 4.37s-2.81-1.64-3.8-4.37a11.775 11.775 0 0 1 7.6 0zm-8.02 3.59a12.385 12.385 0 0 1 -3.1-1.73 12.178 12.178 0 0 1 1.7-1.08 12.926 12.926 0 0 0 1.4 2.81zm-.76-12.22a24.215 24.215 0 0 1 .62-4.71 13.742 13.742 0 0 0 8.72 0 24.215 24.215 0 0 1 .62 4.71zm10.6 9.41a12.178 12.178 0 0 1 1.7 1.08 12.385 12.385 0 0 1 -3.1 1.73 12.926 12.926 0 0 0 1.4-2.81zm.61-1.95a25.888 25.888 0 0 0 .75-5.46h4.97a11.938 11.938 0 0 1 -3.15 7.13 14.322 14.322 0 0 0 -2.57-1.67zm1.09-15.95a12.178 12.178 0 0 1 -1.7 1.08 12.926 12.926 0 0 0 -1.4-2.81 12.385 12.385 0 0 1 3.1 1.73zm-7.32-2.51c1.36 0 2.81 1.64 3.8 4.37a11.775 11.775 0 0 1 -7.6 0c.99-2.73 2.44-4.37 3.8-4.37zm-4.22.78a12.926 12.926 0 0 0 -1.4 2.81 12.178 12.178 0 0 1 -1.7-1.08 12.385 12.385 0 0 1 3.1-1.73zm-4.58 3.09a14.322 14.322 0 0 0 2.57 1.67 25.888 25.888 0 0 0 -.75 5.46h-4.97a11.938 11.938 0 0 1 3.15-7.13zm1.82 9.13a25.888 25.888 0 0 0 .75 5.46 14.322 14.322 0 0 0 -2.57 1.67 11.938 11.938 0 0 1 -3.15-7.13zm14.98 36a1 1 0 0 1 1 1v1h-18v-1a1 1 0 0 1 1-1zm-11-2v-4h6v4zm24-9a3.009 3.009 0 0 1 -3 3h-36a3.009 3.009 0 0 1 -3-3v-1h42zm0-3h-42v-19a3.009 3.009 0 0 1 3-3h4.05a14 14 0 0 0 12.95 12.95v3.05h-12.18a3 3 0 1 0 0 2h26.36a3 3 0 1 0 0-2h-12.18v-3.05a14 14 0 0 0 12.95-12.95h4.05a3.009 3.009 0 0 1 3 3zm-36-5a1 1 0 1 1 -1-1 1 1 0 0 1 1 1zm30 0a1 1 0 1 1 1 1 1 1 0 0 1 -1-1z" fill="url(#New_Gradient_Swatch_1)"/><path d="m47 47h2v2h-2z" fill="url(#New_Gradient_Swatch_1-2)"/><path d="m43 47h2v2h-2z" fill="url(#New_Gradient_Swatch_1-3)"/><path d="m19 9a1 1 0 0 0 -1 1h-2.1a5.038 5.038 0 0 0 -.73-1.75l1.49-1.49a1 1 0 1 0 1.41-1.42l-1.41-1.41a1.008 1.008 0 0 0 -1.42 0 1 1 0 0 0 0 1.41l-1.49 1.49a5.038 5.038 0 0 0 -1.75-.73v-2.1a1 1 0 0 0 0-2h-2a1 1 0 0 0 0 2v2.1a5.038 5.038 0 0 0 -1.75.73l-1.49-1.49a1 1 0 0 0 0-1.41 1.008 1.008 0 0 0 -1.42 0l-1.41 1.41a1 1 0 0 0 1.41 1.42l1.49 1.49a5.038 5.038 0 0 0 -.73 1.75h-2.1a1 1 0 0 0 -2 0v2a1 1 0 0 0 2 0h2.1a5.038 5.038 0 0 0 .73 1.75l-1.49 1.49a.976.976 0 0 0 -.7-.29.966.966 0 0 0 -.71.29 1.008 1.008 0 0 0 0 1.42l1.41 1.41a1.014 1.014 0 0 0 1.42 0 1 1 0 0 0 0-1.41l1.49-1.49a5.038 5.038 0 0 0 1.75.73v2.1a1 1 0 0 0 0 2h2a1 1 0 0 0 0-2v-2.1a5.038 5.038 0 0 0 1.75-.73l1.49 1.49a1 1 0 0 0 0 1.41 1.014 1.014 0 0 0 1.42 0l1.41-1.41a1.008 1.008 0 0 0 0-1.42 1 1 0 0 0 -1.41 0l-1.49-1.49a5.038 5.038 0 0 0 .73-1.75h2.1a1 1 0 0 0 2 0v-2a1 1 0 0 0 -1-1zm-8 5a3 3 0 1 1 3-3 3.009 3.009 0 0 1 -3 3z" fill="url(#New_Gradient_Swatch_1-4)"/><path d="m10 10h2v2h-2z" fill="url(#New_Gradient_Swatch_1-4)"/><g fill="url(#New_Gradient_Swatch_1-6)"><path d="m61 9a1 1 0 0 0 -1 1h-2.1a5.038 5.038 0 0 0 -.73-1.75l1.49-1.49a1 1 0 0 0 1.41-1.42l-1.41-1.41a1.008 1.008 0 0 0 -1.42 0 1 1 0 0 0 0 1.41l-1.49 1.49a5.038 5.038 0 0 0 -1.75-.73v-2.1a1 1 0 0 0 0-2h-2a1 1 0 0 0 0 2v2.1a5.038 5.038 0 0 0 -1.75.73l-1.49-1.49a1 1 0 0 0 0-1.41 1.008 1.008 0 0 0 -1.42 0l-1.41 1.41a1 1 0 0 0 1.41 1.42l1.49 1.49a5.038 5.038 0 0 0 -.73 1.75h-2.1a1 1 0 0 0 -2 0v2a1 1 0 0 0 2 0h2.1a5.038 5.038 0 0 0 .73 1.75l-1.49 1.49a.976.976 0 0 0 -.7-.29.966.966 0 0 0 -.71.29 1.008 1.008 0 0 0 0 1.42l1.41 1.41a1.014 1.014 0 0 0 1.42 0 1 1 0 0 0 0-1.41l1.49-1.49a5.038 5.038 0 0 0 1.75.73v2.1a1 1 0 0 0 0 2h2a1 1 0 0 0 0-2v-2.1a5.038 5.038 0 0 0 1.75-.73l1.49 1.49a1 1 0 0 0 0 1.41 1.014 1.014 0 0 0 1.42 0l1.41-1.41a1.008 1.008 0 0 0 0-1.42 1 1 0 0 0 -1.41 0l-1.49-1.49a5.038 5.038 0 0 0 .73-1.75h2.1a1 1 0 0 0 2 0v-2a1 1 0 0 0 -1-1zm-8 5a3 3 0 1 1 3-3 3.009 3.009 0 0 1 -3 3z"/><path d="m52 10h2v2h-2z"/></g></g></svg>